<?xml version="1.0" standalone="no"?>
<!DOCTYPE svg PUBLIC "-//W3C//DTD SVG 20010904//EN"
 "http://www.w3.org/TR/2001/REC-SVG-20010904/DTD/svg10.dtd">
<svg version="1.0" xmlns="http://www.w3.org/2000/svg"
 width="260.000000pt" height="260.000000pt" viewBox="0 0 260.000000 260.000000"
 preserveAspectRatio="xMidYMid meet">
<metadata>
Created by potrace 1.11, written by Peter Selinger 2001-2013
</metadata>
<g transform="translate(0.000000,260.000000) scale(0.100000,-0.100000)"
fill="#000000" stroke="none">
<path d="M0 1300 l0 -1300 1300 0 1300 0 0 1300 0 1300 -1300 0 -1300 0 0
-1300z m1505 851 c307 -64 580 -278 706 -556 89 -196 107 -377 55 -550 -83
-279 -270 -503 -521 -625 -393 -192 -832 -121 -1140 185 -260 258 -352 574
-254 876 113 349 423 618 783 678 94 16 275 12 371 -8z"/>
<path d="M1215 1989 c-113 -19 -222 -81 -287 -163 -35 -44 -78 -116 -78 -131
0 -6 132 -92 164 -106 18 -8 31 0 92 60 95 93 171 117 279 90 64 -16 97 -56
97 -117 0 -76 -29 -118 -142 -202 -79 -59 -151 -134 -178 -185 -20 -39 -26
-69 -30 -137 l-4 -88 136 0 136 0 0 55 c0 89 18 113 181 238 151 116 193 188
194 332 0 82 -3 96 -33 157 -79 161 -284 238 -527 197z"/>
<path d="M1180 828 c-56 -29 -80 -73 -80 -148 0 -70 25 -118 76 -147 49 -29
132 -30 190 -4 111 50 112 251 2 301 -59 27 -132 26 -188 -2z"/>
</g>
</svg>
