<?xml version="1.0" standalone="no"?>
<!DOCTYPE svg PUBLIC "-//W3C//DTD SVG 20010904//EN"
 "http://www.w3.org/TR/2001/REC-SVG-20010904/DTD/svg10.dtd">
<svg version="1.0" xmlns="http://www.w3.org/2000/svg"
 width="260.000000pt" height="260.000000pt" viewBox="0 0 260.000000 260.000000"
 preserveAspectRatio="xMidYMid meet">
<metadata>
Created by potrace 1.11, written by Peter Selinger 2001-2013
</metadata>
<g transform="translate(0.000000,260.000000) scale(0.100000,-0.100000)"
fill="#000000" stroke="none">
<path d="M0 1300 l0 -1300 1300 0 1300 0 0 1300 0 1300 -1300 0 -1300 0 0
-1300z m1473 865 c373 -65 677 -331 790 -692 48 -150 51 -262 12 -413 -82
-316 -336 -590 -646 -695 -495 -169 -1045 75 -1249 553 -99 234 -99 422 0 653
181 424 640 673 1093 594z"/>
<path d="M1170 1974 c-30 -8 -75 -24 -100 -36 -58 -28 -157 -128 -192 -194
l-28 -51 90 -56 91 -56 67 68 c77 77 129 101 225 101 111 0 172 -53 164 -142
-6 -68 -41 -114 -151 -197 -53 -40 -108 -87 -123 -104 -44 -53 -71 -126 -79
-209 l-7 -78 130 0 130 0 7 58 c4 32 15 71 25 88 10 17 66 67 123 111 190 147
233 219 226 378 -3 67 -10 101 -26 132 -48 92 -119 149 -233 184 -75 24 -256
25 -339 3z"/>
<path d="M1223 841 c-96 -24 -139 -107 -112 -214 19 -79 102 -126 194 -113 91
14 138 71 138 167 0 96 -49 152 -143 163 -25 2 -60 1 -77 -3z"/>
</g>
</svg>
